<svg xmlns="http://www.w3.org/2000/svg" viewBox="0 0 119.66 40"><defs><style>.cls-1{fill:#fff;}</style></defs><g id="Camada_2" data-name="Camada 2"><g id="livetype"><path d="M110.13,0H7.52a13.51,13.51,0,0,0-2,.18,6.74,6.74,0,0,0-1.9.63A6.3,6.3,0,0,0,2,2,6.07,6.07,0,0,0,.82,3.62a6.74,6.74,0,0,0-.63,1.9,12.18,12.18,0,0,0-.17,2c0,.31,0,.62,0,.92V31.56c0,.31,0,.61,0,.92a12.18,12.18,0,0,0,.17,2,6.8,6.8,0,0,0,.63,1.91A6.19,6.19,0,0,0,2,38a6.07,6.07,0,0,0,1.62,1.18,6.74,6.74,0,0,0,1.9.63,13.51,13.51,0,0,0,2,.18H112.14a13.39,13.39,0,0,0,2-.18,6.91,6.91,0,0,0,1.91-.63A6.24,6.24,0,0,0,117.67,38a6.68,6.68,0,0,0,1.18-1.61,7.12,7.12,0,0,0,.62-1.91,13.39,13.39,0,0,0,.18-2c0-.31,0-.61,0-.92V8.44c0-.3,0-.61,0-.92a13.39,13.39,0,0,0-.18-2,7.05,7.05,0,0,0-.62-1.9A6.54,6.54,0,0,0,117.67,2,6.47,6.47,0,0,0,116.05.82a6.91,6.91,0,0,0-1.91-.63,13.39,13.39,0,0,0-2-.18h-2Z"/><path class="cls-1" d="M8.44,39.13l-.9,0A11.52,11.52,0,0,1,5.67,39,5.89,5.89,0,0,1,4,38.4a5.16,5.16,0,0,1-1.39-1,5.19,5.19,0,0,1-1-1.4,5.79,5.79,0,0,1-.55-1.66,12.1,12.1,0,0,1-.16-1.87c0-.21,0-.92,0-.92V8.44s0-.69,0-.89a12,12,0,0,1,.16-1.87A5.69,5.69,0,0,1,1.6,4a5.06,5.06,0,0,1,1-1.4A5.52,5.52,0,0,1,4,1.6a5.79,5.79,0,0,1,1.66-.55A12.1,12.1,0,0,1,7.54.89H112.13a12.08,12.08,0,0,1,1.86.16,6,6,0,0,1,1.67.55A5.49,5.49,0,0,1,118.07,4a5.92,5.92,0,0,1,.54,1.65,13.68,13.68,0,0,1,.17,1.88v.89c0,.38,0,.74,0,1.1V30.46c0,.37,0,.72,0,1.08v.93a13.12,13.12,0,0,1-.17,1.85,5.85,5.85,0,0,1-.54,1.67,5.42,5.42,0,0,1-1,1.39,5.19,5.19,0,0,1-1.4,1A5.59,5.59,0,0,1,114,39a11.52,11.52,0,0,1-1.87.16l-.9,0H8.44Z"/><path d="M25,19.89a5.15,5.15,0,0,1,2.45-4.32,5.27,5.27,0,0,0-4.15-2.24c-1.75-.19-3.44,1-4.33,1s-2.28-1-3.75-1a5.56,5.56,0,0,0-4.66,2.83c-2,3.49-.51,8.6,1.42,11.42,1,1.38,2.09,2.91,3.56,2.86s2-.92,3.73-.92,2.23.92,3.73.89,2.52-1.39,3.45-2.78A11.28,11.28,0,0,0,28,24.46,5,5,0,0,1,25,19.89Z"/><path d="M22.16,11.48a5.13,5.13,0,0,0,1.16-3.63A5.14,5.14,0,0,0,20,9.57a4.84,4.84,0,0,0-1.19,3.5A4.3,4.3,0,0,0,22.16,11.48Z"/><path d="M42.3,27.14H37.57L36.43,30.5h-2l4.48-12.42H41L45.48,30.5h-2Zm-4.24-1.55h3.75L40,20.14h-.05Z"/><path d="M55.16,26c0,2.81-1.51,4.62-3.78,4.62A3.09,3.09,0,0,1,48.53,29h0v4.48H46.63v-12h1.8V23h0a3.22,3.22,0,0,1,2.89-1.6C53.64,21.35,55.16,23.16,55.16,26Zm-1.91,0c0-1.83-1-3-2.39-3s-2.38,1.23-2.38,3,1,3.05,2.38,3.05S53.25,27.82,53.25,26Z"/><path d="M65.12,26c0,2.81-1.5,4.62-3.77,4.62A3.08,3.08,0,0,1,58.5,29h0v4.48H56.6v-12h1.79V23h0a3.22,3.22,0,0,1,2.88-1.6C63.61,21.35,65.12,23.16,65.12,26Zm-1.91,0c0-1.83-.94-3-2.39-3s-2.37,1.23-2.37,3S59.4,29,60.82,29,63.21,27.82,63.21,26Z"/><path d="M71.71,27c.14,1.23,1.33,2,3,2s2.69-.81,2.69-1.92-.68-1.54-2.29-1.94l-1.61-.39c-2.28-.55-3.34-1.61-3.34-3.34,0-2.15,1.87-3.62,4.52-3.62s4.43,1.47,4.49,3.62H77.26c-.11-1.24-1.14-2-2.63-2s-2.52.75-2.52,1.86c0,.87.65,1.39,2.25,1.79l1.37.33c2.55.6,3.6,1.63,3.6,3.44,0,2.33-1.85,3.78-4.79,3.78-2.75,0-4.61-1.42-4.73-3.66Z"/><path d="M83.35,19.3v2.14h1.72v1.47H83.35v5c0,.77.34,1.13,1.1,1.13a5,5,0,0,0,.61,0v1.46a5.21,5.21,0,0,1-1,.09c-1.84,0-2.55-.69-2.55-2.45V22.91H80.16V21.44h1.32V19.3Z"/><path d="M86.06,26c0-2.85,1.68-4.64,4.3-4.64s4.29,1.79,4.29,4.64S93,30.61,90.36,30.61,86.06,28.83,86.06,26Zm6.7,0c0-1.95-.9-3.11-2.4-3.11S88,24,88,26s.89,3.11,2.4,3.11S92.76,27.93,92.76,26Z"/><path d="M96.19,21.44H98V23h0a2.16,2.16,0,0,1,2.18-1.63,2.49,2.49,0,0,1,.63.07v1.74A2.27,2.27,0,0,0,100,23,1.88,1.88,0,0,0,98,25.13V30.5H96.19Z"/><path d="M109.38,27.84c-.25,1.64-1.85,2.77-3.9,2.77-2.63,0-4.26-1.77-4.26-4.6s1.64-4.68,4.19-4.68,4.08,1.72,4.08,4.47v.63h-6.4v.12a2.36,2.36,0,0,0,2.44,2.56,2.05,2.05,0,0,0,2.09-1.27Zm-6.28-2.71h4.53a2.18,2.18,0,0,0-2.22-2.29A2.29,2.29,0,0,0,103.1,25.13Z"/><path d="M35.67,14.7v-6h2.4c1.12,0,1.79.57,1.79,1.49a1.3,1.3,0,0,1-1,1.28v.07A1.41,1.41,0,0,1,40.16,13c0,1.05-.76,1.69-2,1.69Zm.93-3.44h1.1c.82,0,1.24-.3,1.24-.87s-.4-.87-1.09-.87H36.6Zm1.34,2.65c.83,0,1.27-.34,1.27-1S38.76,12,37.88,12H36.6v1.92Z"/><path d="M41.11,13.42c0-.81.61-1.27,1.68-1.34L44,12v-.39c0-.47-.32-.74-.92-.74s-.84.18-.94.5h-.86c.09-.78.82-1.27,1.84-1.27s1.76.56,1.76,1.51V14.7H44v-.64H44a1.5,1.5,0,0,1-1.35.71A1.36,1.36,0,0,1,41.11,13.42ZM44,13v-.38l-1.1.07c-.62,0-.9.26-.9.65s.35.64.83.64A1.06,1.06,0,0,0,44,13Z"/><path d="M46.17,8.86a.54.54,0,0,1,.57-.54.54.54,0,1,1,0,1.08A.54.54,0,0,1,46.17,8.86Zm.13,1.33h.89V14.7H46.3Z"/><path d="M50.24,13.1l-1,1.6h-1l1.49-2.24-1.51-2.27h1l1,1.59h.07l1-1.59h1L50.8,12.42l1.5,2.28h-1l-1-1.6Z"/><path d="M53.09,13.42c0-.81.6-1.27,1.67-1.34L56,12v-.39c0-.47-.31-.74-.92-.74s-.84.18-.94.5h-.86c.09-.78.82-1.27,1.84-1.27s1.77.56,1.77,1.51V14.7H56v-.64h-.07a1.5,1.5,0,0,1-1.35.71A1.36,1.36,0,0,1,53.09,13.42ZM56,13v-.38l-1.1.07c-.62,0-.9.26-.9.65s.35.64.84.64A1.05,1.05,0,0,0,56,13Z"/><path d="M58.26,10.19h.85v.7h.07a1.22,1.22,0,0,1,1.22-.77,1.51,1.51,0,0,1,.39,0V11a2.85,2.85,0,0,0-.49,0A1.05,1.05,0,0,0,59.15,12V14.7h-.89Z"/><path d="M64.22,10.19h.85v.72h.07a1.35,1.35,0,0,1,1.34-.8A1.46,1.46,0,0,1,68,11.78V14.7h-.89V12c0-.73-.31-1.09-1-1.09a1,1,0,0,0-1.07,1.14V14.7h-.89Z"/><path d="M69.16,13.42c0-.81.6-1.27,1.68-1.34L72.06,12v-.39c0-.47-.32-.74-.93-.74s-.84.18-.94.5h-.86c.1-.78.82-1.27,1.84-1.27s1.77.56,1.77,1.51V14.7h-.86v-.64H72a1.49,1.49,0,0,1-1.35.71A1.36,1.36,0,0,1,69.16,13.42Zm2.9-.38v-.38l-1.1.07c-.62,0-.91.26-.91.65s.36.64.84.64A1.06,1.06,0,0,0,72.06,13Z"/></g></g></svg>